#!OML:ASF I:\Actors\actors\Patient Classification 1\Patient 1\Session 1\Subject1.ASF
:FULLY-SPECIFIED
:DEGREES
381
root -0.0884524 17.5564 8.63123 15.4388 4.48169 -8.51717
lowerback 4.82639 -0.0697249 7.4559
upperback -1.98504 0.418839 0.131937
thorax -4.73986 -0.0186723 -4.08654
lowerneck 0.980392 -3.52434 -3.61512
upperneck 13.2624 -2.35173 -20.5954
head 3.54918 -2.17566 -5.84891
rclavicle 1.70955e-014 -7.95139e-016
rhumerus 33.904 49.9624 -49.9596
rradius 63.5044
rwrist 20.2304
rhand 1.03488 -28.587
rfingers 7.12502
rthumb 26.5812 -56.7415
lclavicle 1.70955e-014 -7.95139e-016
lhumerus 30.4781 -53.3619 40.8194
lradius 60.0825
lwrist 3.4559
lhand -49.6603 -27.8351
lfingers 7.12502
lthumb -22.263 0.902551
rfemur -10.2814 26.525 20.8285
rtibia 2.85857
rfoot -15.6355 -31.0372
rtoes 6.31655
lfemur -7.16504 -45.2225 -1.42973
ltibia -3.9373
lfoot -23.7969 53.8187
ltoes 13.0547
382
root -0.0948036 17.5592 8.61371 15.638 4.49858 -8.55367
lowerback 5.04767 -0.079912 7.36521
upperback -1.71988 0.398329 -0.0525434
thorax -4.58799 -0.0163491 -4.22819
lowerneck 1.63538 -3.27056 -3.45406
upperneck 11.6103 -2.38933 -20.5771
head 2.92755 -2.01723 -5.80478
rclavicle -8.15017e-015 -7.15625e-015
rhumerus 33.4219 49.4822 -50.3722
rradius 64.2381
rwrist 20.0283
rhand 0.856731 -28.8358
rfingers 7.12502
rthumb 26.4107 -57.0161
lclavicle -8.15017e-015 -7.15625e-015
lhumerus 31.1978 -52.9961 39.7446
lradius 60.5
lwrist 3.28075
lhand -49.4634 -27.7911
lfingers 7.12502
lthumb -22.074 0.969025
rfemur -10.5695 26.7022 20.7229
rtibia 2.78596
rfoot -15.5726 -31.2143
rtoes 6.31102
lfemur -7.58413 -45.2955 -1.02061
ltibia -3.95461
lfoot -24.1939 53.9023
ltoes 13.5429
383
root -0.100538 17.5631 8.59601 15.8407 4.49666 -8.58444
lowerback 5.35375 -0.129383 7.19704
upperback -1.47758 0.330147 -0.190915
thorax -4.51492 -0.0383053 -4.27416
lowerneck 2.09843 -2.91034 -3.36762
upperneck 10.0213 -2.24233 -20.6412
head 2.38113 -1.78963 -5.78809
rclavicle -2.46493e-014 -6.36111e-015
rhumerus 32.9926 49.1147 -50.7657
rradius 64.9708
rwrist 20.0798
rhand 0.692117 -29.0451
rfingers 7.12502
rthumb 26.2531 -57.2489
lclavicle -2.46493e-014 -6.36111e-015
lhumerus 31.7421 -52.5908 38.8201
lradius 60.8934
lwrist 3.10127
lhand -49.3082 -27.5942
lfingers 7.12502
lthumb -21.925 1.18348
rfemur -10.857 26.9378 20.5956
rtibia 2.69321
rfoot -15.4925 -31.4368
rtoes 6.3474
lfemur -7.92003 -45.684 -0.62616
ltibia -4.06088
lfoot -24.9238 54.2427
ltoes 14.1889
384
root -0.103652 17.5658 8.57841 16.0693 4.4832 -8.67907
lowerback 5.67305 -0.130635 7.14737
upperback -1.27213 0.3361 -0.347804
thorax -4.47869 -0.0294574 -4.4132
lowerneck 2.3312 -2.57877 -3.18949
upperneck 8.68608 -2.05574 -20.8462
head 1.95294 -1.57433 -5.84899
rclavicle 9.74045e-015 -8.74653e-015
rhumerus 32.1978 48.6137 -51.5278
rradius 65.6466
rwrist 20.4834
rhand 0.557662 -29.0389
rfingers 7.12502
rthumb 26.1244 -57.2618
lclavicle 9.74045e-015 -8.74653e-015
lhumerus 32.4372 -52.3207 37.9594
lradius 61.1528
lwrist 2.87148
lhand -49.2654 -27.4591
lfingers 7.12502
lthumb -21.8839 1.32329
rfemur -11.1933 27.1031 20.5143
rtibia 2.628
rfoot -15.458 -31.5233
rtoes 6.55485
lfemur -8.30898 -45.9972 -0.129549
ltibia -4.17102
lfoot -25.1554 54.6461
ltoes 14.2565
385
root -0.10434 17.5671 8.56227 16.3351 4.46654 -8.77554
lowerback 5.91382 -0.0365431 7.17965
upperback -1.07107 0.465945 -0.574934
thorax -4.38541 0.0398683 -4.68365
lowerneck 2.51368 -2.36636 -2.8517
upperneck 7.45347 -2.00707 -21.0764
head 1.54993 -1.43194 -5.95242
rclavicle 3.18055e-015 3.26007e-014
rhumerus 31.2017 47.9206 -52.3532
rradius 66.3215
rwrist 20.8157
rhand 0.330603 -29.06
rfingers 7.12502
rthumb 25.907 -57.3148
lclavicle 3.18055e-015 3.26007e-014
lhumerus 33.6052 -52.2566 36.8579
lradius 61.3055
lwrist 2.7579
lhand -49.2104 -27.2124
lfingers 7.12502
lthumb -21.8311 1.57618
rfemur -11.5602 27.1847 20.4121
rtibia 2.54981
rfoot -15.3862 -31.5244
rtoes 6.68682
lfemur -8.79101 -46.3414 0.407188
ltibia -4.19169
lfoot -25.5269 55.0848
ltoes 14.3016
386
root -0.10427 17.5679 8.54693 16.58 4.48166 -8.88764
lowerback 6.16642 0.0634289 7.21165
upperback -0.878389 0.604703 -0.810305
thorax -4.30495 0.113224 -4.96445
lowerneck 2.78659 -2.19535 -2.53811
upperneck 6.1729 -2.04025 -21.1671
head 1.11435 -1.31979 -6.00933
rclavicle 7.95139e-015 7.95139e-016
rhumerus 30.2383 47.2482 -53.1214
rradius 66.9841
rwrist 21.0296
rhand -0.0229473 -29.1894
rfingers 7.12502
rthumb 25.5684 -57.4933
lclavicle 7.95139e-015 7.95139e-016
lhumerus 34.9198 -52.2882 35.599
lradius 61.4428
lwrist 2.87035
lhand -49.1557 -26.9685
lfingers 7.12502
lthumb -21.7785 1.82621
rfemur -11.8702 27.3434 20.3356
rtibia 2.41716
rfoot -15.3127 -31.6311
rtoes 6.94586
lfemur -9.24512 -47.1645 0.989275
ltibia -4.19542
lfoot -26.6115 55.8006
ltoes 15.0104
387
root -0.102795 17.5676 8.53251 16.8273 4.54037 -9.03747
lowerback 6.43614 0.129795 7.27043
upperback -0.720846 0.705289 -1.00378
thorax -4.27538 0.164888 -5.21413
lowerneck 3.06969 -2.04965 -2.40071
upperneck 4.94128 -2.10574 -21.0924
head 0.69606 -1.23044 -5.98848
rclavicle 9.54166e-015 1.03368e-014
rhumerus 29.379 46.681 -53.8434
rradius 67.5542
rwrist 21.2342
rhand -0.217456 -29.2422
rfingers 7.12502
rthumb 25.3821 -57.5727
lclavicle 9.54166e-015 1.03368e-014
lhumerus 36.0858 -52.3221 34.4697
lradius 61.557
lwrist 2.9802
lhand -49.1229 -26.9403
lfingers 7.12502
lthumb -21.747 1.85803
rfemur -12.183 27.6029 20.288
rtibia 2.28375
rfoot -15.4036 -31.8483
rtoes 7.36674
lfemur -9.74041 -48.2217 1.69125
ltibia -4.21062
lfoot -28.0064 56.6355
ltoes 15.8885
388
root -0.0981943 17.5665 8.52073 17.1292 4.60756 -9.16024
lowerback 6.61596 0.231357 7.36616
upperback -0.57762 0.848295 -1.22159
thorax -4.20188 0.238126 -5.51417
lowerneck 3.29708 -1.99785 -2.34954
upperneck 3.84698 -2.26835 -20.8648
head 0.323345 -1.20508 -5.90875
rclavicle 1.03368e-014 6.36111e-015
rhumerus 28.4945 46.0317 -54.5536
rradius 68.0308
rwrist 21.3767
rhand -0.294209 -29.1536
rfingers 7.12502
rthumb 25.3085 -57.4945
lclavicle 1.03368e-014 6.36111e-015
lhumerus 37.2855 -52.3906 33.2512
lradius 61.8
lwrist 3.0117
lhand -49.1328 -26.6849
lfingers 7.12502
lthumb -21.7565 2.1124
rfemur -12.554 27.8093 20.1795
rtibia 2.16316
rfoot -15.5549 -32.0338
rtoes 7.70524
lfemur -10.3261 -49.0668 2.41641
ltibia -4.23966
lfoot -29.4307 57.264
ltoes 16.7965
389
root -0.0916957 17.5668 8.5108 17.465 4.69799 -9.29948
lowerback 6.71666 0.324632 7.45513
upperback -0.444061 0.97529 -1.41116
thorax -4.0951 0.305471 -5.77814
lowerneck 3.45007 -1.90811 -2.07666
upperneck 2.8506 -2.34177 -20.872
head -0.00648036 -1.14786 -5.9459
rclavicle 2.78299e-015 3.18055e-015
rhumerus 27.5916 45.3591 -55.3342
rradius 68.4576
rwrist 21.5386
rhand -0.455318 -29.0614
rfingers 7.12502
rthumb 25.1542 -57.4241
lclavicle 2.78299e-015 3.18055e-015
lhumerus 38.279 -52.4191 32.0916
lradius 62.2288
lwrist 3.02102
lhand -49.1297 -26.207
lfingers 7.12502
lthumb -21.7536 2.59063
rfemur -12.9622 27.9127 20.0794
rtibia 2.04728
rfoot -15.5828 -32.1653
rtoes 7.99777
lfemur -10.9679 -49.8406 3.22135
ltibia -4.30084
lfoot -30.9255 57.7877
ltoes 17.8914
390
root -0.0875186 17.5697 8.50087 17.7509 4.83338 -9.48187
lowerback 6.89454 0.357128 7.46863
upperback -0.300081 1.02547 -1.49503
thorax -4.03468 0.336142 -5.88145
lowerneck 3.61467 -1.64571 -1.71169
upperneck 1.72375 -2.20221 -21.0455
head -0.35868 -0.97581 -6.0574
rclavicle 3.57812e-015 -1.59028e-015
rhumerus 27.0815 44.8547 -55.7524
rradius 68.8265
rwrist 21.6852
rhand -0.646466 -29.167
rfingers 7.12502
rthumb 24.971 -57.5552
lclavicle 3.57812e-015 -1.59028e-015
lhumerus 39.0486 -52.3245 31.2419
lradius 62.5694
lwrist 3.02709
lhand -48.8934 -25.7978
lfingers 7.12502
lthumb -21.5266 3.02598
rfemur -13.3386 28.0423 20.0698
rtibia 1.98329
rfoot -15.572 -32.3485
rtoes 8.18939
lfemur -11.5838 -50.506 4.06773
ltibia -4.36371
lfoot -32.0159 58.2659
ltoes 18.4604
391
root -0.0846242 17.574 8.49218 17.9627 4.96352 -9.59886
lowerback 7.17415 0.393705 7.38088
upperback -0.139502 1.08011 -1.5755
thorax -4.01476 0.369991 -5.92616
lowerneck 3.80171 -1.4045 -1.58367
upperneck 0.598275 -2.09805 -20.9281
head -0.708522 -0.824383 -6.03962
rclavicle -4.77083e-015 -7.95139e-015
rhumerus 26.6645 44.3405 -55.9999
rradius 69.1505
rwrist 21.9536
rhand -0.926843 -29.2599
rfingers 7.12502
rthumb 24.7023 -57.6852
lclavicle -4.77083e-015 -7.95139e-015
lhumerus 39.828 -52.1835 30.5295
lradius 62.8059
lwrist 2.96746
lhand -48.5954 -25.512
lfingers 7.12502
lthumb -21.2404 3.34419
rfemur -13.6135 28.2058 20.0415
rtibia 1.92627
rfoot -15.6603 -32.5529
rtoes 8.4691
lfemur -12.0845 -50.9579 4.70569
ltibia -4.40609
lfoot -32.4187 58.6776
ltoes 18.4512
392
root -0.0789865 17.5768 8.48543 18.1778 5.08672 -9.6762
lowerback 7.40852 0.459627 7.30435
upperback 0.00255629 1.16975 -1.69668
thorax -3.98221 0.420539 -6.0236
lowerneck 3.90911 -1.27832 -1.47255
upperneck -0.287249 -2.09345 -20.725
head -0.982946 -0.747995 -5.99297
rclavicle 8.34896e-015 1.59028e-015
rhumerus 26.0372 43.7365 -56.4496
rradius 69.4737
rwrist 22.3213
rhand -1.34861 -29.2107
rfingers 7.12502
rthumb 24.298 -57.6907
lclavicle 8.34896e-015 1.59028e-015
lhumerus 40.5327 -52.0677 29.9148
lradius 63.0492
lwrist 2.80646
lhand -48.5035 -25.1475
lfingers 7.12502
lthumb -21.1521 3.71867
rfemur -13.8922 28.3385 19.9563
rtibia 1.88362
rfoot -15.761 -32.7306
rtoes 8.83337
lfemur -12.6221 -51.5582 5.32743
ltibia -4.3985
lfoot -33.2584 59.0842
ltoes 18.9876
393
root -0.0703147 17.5795 8.47806 18.3813 5.27897 -9.77497
lowerback 7.66146 0.491126 7.3194
upperback 0.125746 1.22371 -1.80617
thorax -3.98391 0.449659 -6.1586
lowerneck 4.0953 -1.13637 -1.25041
upperneck -1.19368 -2.07038 -20.5893
head -1.27769 -0.658276 -5.98889
rclavicle 0 -1.59028e-015
rhumerus 25.582 43.186 -56.7831
rradius 69.742
rwrist 22.4893
rhand -1.62248 -29.1888
rfingers 7.12502
rthumb 24.0354 -57.7037
lclavicle 0 -1.59028e-015
lhumerus 41.1769 -51.9666 29.358
lradius 63.2559
lwrist 2.73898
lhand -48.3707 -24.7772
lfingers 7.12502
lthumb -21.0245 4.10313
rfemur -14.1727 28.4429 19.9008
rtibia 1.8662
rfoot -15.7019 -32.9822
rtoes 8.70121
lfemur -13.2325 -52.1263 6.02727
ltibia -4.36514
lfoot -34.0906 59.4144
ltoes 19.4431
394
root -0.0609803 17.5835 8.4701 18.5656 5.52216 -9.85014
lowerback 7.95883 0.470034 7.29202
upperback 0.25179 1.20881 -1.87265
thorax -4.02004 0.444439 -6.21792
lowerneck 4.36004 -0.932126 -1.18577
upperneck -2.21535 -1.98823 -20.2809
head -1.60987 -0.531423 -5.90756
rclavicle 7.15625e-015 0
rhumerus 25.269 42.6662 -57.0274
rradius 70.0071
rwrist 22.5863
rhand -1.52751 -29.1026
rfingers 7.12502
rthumb 24.1265 -57.6055
lclavicle 7.15625e-015 0
lhumerus 41.7354 -51.7912 28.8995
lradius 63.4151
lwrist 2.72274
lhand -48.2522 -24.4113
lfingers 7.12502
lthumb -20.9107 4.48168
rfemur -14.4135 28.6002 19.8256
rtibia 1.82589
rfoot -15.7642 -33.3352
rtoes 8.66399
lfemur -13.8522 -52.6514 6.72103
ltibia -4.36584
lfoot -34.4908 59.8128
ltoes 19.3773
395
root -0.0529159 17.5868 8.46459 18.7976 5.70903 -9.91208
lowerback 8.15521 0.482644 7.17839
upperback 0.384991 1.22329 -1.9305
thorax -3.98879 0.458661 -6.21896
lowerneck 4.55954 -0.703517 -1.06159
upperneck -3.24864 -1.86118 -20.0094
head -1.93126 -0.388024 -5.85267
rclavicle 2.22639e-014 1.43125e-014
rhumerus 24.8982 42.0882 -57.339
rradius 70.3278
rwrist 22.6848
rhand -1.45599 -28.9699
rfingers 7.12502
rthumb 24.1951 -57.4637
lclavicle 2.22639e-014 1.43125e-014
lhumerus 42.1916 -51.541 28.5556
lradius 63.5989
lwrist 2.47309
lhand -48.266 -23.7806
lfingers 7.12502
lthumb -20.924 5.11087
rfemur -14.7216 28.8135 19.6858
rtibia 1.80669
rfoot -15.9869 -33.6691
rtoes 9.16754
lfemur -14.5352 -53.3661 7.497
ltibia -4.37884
lfoot -35.4548 60.3266
ltoes 19.7321
